<mxfile host="app.diagrams.net" agent="Mozilla/5.0 (Macintosh; Intel Mac OS X 10_15_7) AppleWebKit/537.36 (KHTML, like Gecko) Chrome/127.0.0.0 Safari/537.36" version="24.7.6">
  <diagram name="Page-1" id="pX6aO8cLvgvZTjcbJl5f">
    <mxGraphModel grid="0" page="0" gridSize="10" guides="1" tooltips="1" connect="1" arrows="1" fold="1" pageScale="1" pageWidth="827" pageHeight="1169" math="0" shadow="0">
      <root>
        <mxCell id="0" />
        <mxCell id="1" parent="0" />
        <mxCell id="gMZFQcL6KTRc4e1LXeqA-1" value="User" style="swimlane;childLayout=stackLayout;horizontal=1;startSize=35;horizontalStack=0;rounded=1;fontSize=14;fontStyle=0;strokeWidth=2;resizeParent=0;resizeLast=1;shadow=0;dashed=0;align=center;arcSize=4;whiteSpace=wrap;html=1;" vertex="1" parent="1">
          <mxGeometry x="-41" y="-183" width="160" height="120" as="geometry">
            <mxRectangle x="-43" y="-183" width="65" height="50" as="alternateBounds" />
          </mxGeometry>
        </mxCell>
        <mxCell id="gMZFQcL6KTRc4e1LXeqA-2" value="firstName (string)&lt;div&gt;lastName&amp;nbsp;&lt;span style=&quot;background-color: initial;&quot;&gt;(string)&lt;/span&gt;&lt;/div&gt;&lt;div&gt;email&amp;nbsp;&lt;span style=&quot;background-color: initial;&quot;&gt;(string)&lt;/span&gt;&lt;/div&gt;&lt;div&gt;password (string)&lt;/div&gt;&lt;div&gt;phone (number)&lt;/div&gt;" style="align=left;strokeColor=none;fillColor=none;spacingLeft=4;fontSize=12;verticalAlign=top;resizable=0;rotatable=0;part=1;html=1;" vertex="1" parent="gMZFQcL6KTRc4e1LXeqA-1">
          <mxGeometry y="35" width="160" height="85" as="geometry" />
        </mxCell>
        <mxCell id="gMZFQcL6KTRc4e1LXeqA-5" value="Role" style="swimlane;childLayout=stackLayout;horizontal=1;startSize=35;horizontalStack=0;rounded=1;fontSize=14;fontStyle=0;strokeWidth=2;resizeParent=0;resizeLast=1;shadow=0;dashed=0;align=center;arcSize=0;whiteSpace=wrap;html=1;" vertex="1" parent="1">
          <mxGeometry x="260" y="-185" width="160" height="120" as="geometry" />
        </mxCell>
        <mxCell id="gMZFQcL6KTRc4e1LXeqA-6" value="&lt;div&gt;name (string)&lt;/div&gt;&lt;div&gt;permissions (string)&lt;/div&gt;" style="align=left;strokeColor=none;fillColor=none;spacingLeft=4;fontSize=12;verticalAlign=top;resizable=0;rotatable=0;part=1;html=1;" vertex="1" parent="gMZFQcL6KTRc4e1LXeqA-5">
          <mxGeometry y="35" width="160" height="70" as="geometry" />
        </mxCell>
        <mxCell id="gMZFQcL6KTRc4e1LXeqA-7" value="&lt;div&gt;&lt;br&gt;&lt;/div&gt;" style="align=left;strokeColor=none;fillColor=none;spacingLeft=4;fontSize=12;verticalAlign=top;resizable=0;rotatable=0;part=1;html=1;" vertex="1" parent="gMZFQcL6KTRc4e1LXeqA-5">
          <mxGeometry y="105" width="160" height="15" as="geometry" />
        </mxCell>
        <mxCell id="gMZFQcL6KTRc4e1LXeqA-8" value="" style="edgeStyle=entityRelationEdgeStyle;fontSize=12;html=1;endArrow=ERmandOne;startArrow=ERmandOne;rounded=0;startSize=8;endSize=8;curved=1;entryX=0;entryY=0;entryDx=0;entryDy=0;exitX=0.984;exitY=0.404;exitDx=0;exitDy=0;exitPerimeter=0;" edge="1" parent="1" source="gMZFQcL6KTRc4e1LXeqA-1" target="gMZFQcL6KTRc4e1LXeqA-6">
          <mxGeometry width="100" height="100" relative="1" as="geometry">
            <mxPoint x="121" y="-135" as="sourcePoint" />
            <mxPoint x="221" y="-227" as="targetPoint" />
          </mxGeometry>
        </mxCell>
        <mxCell id="gMZFQcL6KTRc4e1LXeqA-9" value="has" style="edgeLabel;html=1;align=center;verticalAlign=middle;resizable=0;points=[];fontSize=18;" connectable="0" vertex="1" parent="gMZFQcL6KTRc4e1LXeqA-8">
          <mxGeometry x="0.01" y="1" relative="1" as="geometry">
            <mxPoint as="offset" />
          </mxGeometry>
        </mxCell>
      </root>
    </mxGraphModel>
  </diagram>
</mxfile>
